<svg width="66" height="65" viewBox="0 0 66 65" fill="none" xmlns="http://www.w3.org/2000/svg">
<rect width="66" height="65" rx="10" fill="#F6F8FF"/>
<path d="M42.5638 24.9054C44.6278 24.447 47.3162 22.3984 47.7253 21.3894C47.9653 20.7989 46.7687 19.876 46.4488 19.5038C45.7167 18.6549 46.012 18.2365 46.295 17.2245C46.618 16.0741 45.852 14.8037 44.7662 14.3054C43.6804 13.807 42.3823 13.9639 41.2903 14.4499C40.1983 14.9359 39.2663 15.7172 38.3527 16.4863C37.6852 16.0648 36.6209 14.2038 34.8983 15.4127C33.7079 16.2463 33.6002 18.0612 33.754 19.51C34.1139 22.8536 34.9383 24.5885 36.4917 25.0561C38.4542 25.6467 40.6259 25.336 42.5638 24.9054Z" fill="#20B2AA"/>
<path d="M45.9176 15.2871C45.6561 19.7935 41.2605 22.7834 39.175 24.0999L40.5284 25.2627C40.5284 25.2627 41.3866 25.2811 42.5617 24.9059C44.5765 24.266 47.5202 22.4573 47.7232 21.39C48.0216 19.8366 46.4282 20.1749 46.0683 18.9476C45.8807 18.2985 46.9819 17.0712 45.9176 15.2871ZM38.3567 16.4898C38.3567 16.4898 37.5723 15.687 36.991 15.3209C36.7018 15.8654 36.4957 16.456 36.3942 17.0651C36.2127 18.1355 36.3942 19.6551 36.8218 20.7871C36.8895 20.9624 37.1417 20.9347 37.1694 20.7501C37.5385 18.317 38.3567 16.4898 38.3567 16.4898Z" fill="#1064E2"/>
<path d="M32.8726 24.5092C32.8726 24.5092 23.2784 25.5458 18.9504 33.8757C14.6225 42.2056 18.3014 47.2564 22.1957 49.0959C26.0899 50.9354 35.9024 51.5844 42.2852 50.071C48.668 48.5576 50.2644 45.42 49.9661 42.3902C49.5323 37.9668 45.4228 35.2476 45.4228 35.2476C45.4228 35.2476 45.5858 29.7846 41.347 26.2379C37.585 23.0881 32.8726 24.5092 32.8726 24.5092Z" fill="#20B2AA"/>
<path d="M36.8084 38.5258C34.7505 35.9296 32.3204 35.582 31.5422 34.65C31.1177 34.1424 30.8686 33.6287 30.9639 32.992C31.0654 32.3153 31.8498 31.8477 32.4589 31.7339C33.1694 31.5986 34.8643 31.6693 36.2885 33.0258C36.6269 33.3457 36.5038 33.8441 36.4946 34.2901C36.47 35.2467 37.8388 36.1757 38.9462 35.3759C40.0567 34.5731 39.2046 32.7859 38.4879 31.9185C37.9465 31.2633 35.984 29.8206 33.5447 29.593C32.8587 29.5284 30.0995 29.1193 28.5062 32.1492C28.0478 33.0197 27.8786 35.1237 30.278 36.9016C30.7793 37.2738 33.3817 38.5965 34.1045 39.4547C35.3565 40.9405 34.4983 42.2478 33.5201 42.42C30.8532 42.8876 29.3428 41.4449 29.0629 40.6544C28.863 40.0915 29.0721 39.4824 28.8138 38.9533C28.5492 38.4089 28.0078 38.1936 27.4357 38.3751C25.5593 38.9718 26.1561 41.0235 26.9866 42.1524C27.8756 43.3613 28.9676 44.0903 30.1949 44.4902C34.7751 45.9821 36.9775 43.6258 37.362 41.9002C37.645 40.6359 37.6143 39.5409 36.8084 38.5258Z" fill="white"/>
<path d="M35.7007 27.8398C31.8034 36.1636 31.1328 46.6744 31.1328 46.6744" stroke="white" stroke-width="2.25" stroke-miterlimit="10"/>
<path d="M38.9365 22.6009C41.5327 23.4468 42.1079 25.7938 41.9203 26.4336C41.6957 27.1842 38.8196 24.2619 34.5439 24.4373C33.049 24.4988 33.4827 23.5821 34.1748 23.0531C35.0884 22.3548 36.6233 21.8503 38.9365 22.6009Z" fill="#6D4C41"/>
<path d="M38.9365 22.6009C41.5327 23.4468 42.1079 25.7938 41.9203 26.4336C41.6957 27.1842 38.8196 24.2619 34.5439 24.4373C33.049 24.4988 33.4827 23.5821 34.1748 23.0531C35.0884 22.3548 36.6233 21.8503 38.9365 22.6009Z" fill="#F7DECE"/>
<path d="M43.4961 30.8764C43.8222 30.6518 44.9173 31.0394 45.2249 33.1834C45.3756 34.2323 45.4217 35.2474 45.4217 35.2474C45.4217 35.2474 44.1298 34.0878 43.7022 33.2726C43.1639 32.2422 42.9548 31.2455 43.4961 30.8764Z" fill="#1064E2"/>
</svg>
